<svg width="400" height="400" viewBox="0 0 400 400" xmlns="http://www.w3.org/2000/svg">
  <g fill="none" stroke="#ABB2BF" stroke-width="1.5">
    <path d="M50 50 L150 50 L200 100 L200 200 L150 250 L50 250 Z" />
    <path d="M300 50 L350 100 L350 200 L300 250" />
    <circle cx="50" cy="50" r="3" fill="#ABB2BF" fill-opacity="0.2" />
    <circle cx="150" cy="50" r="3" fill="#ABB2BF" fill-opacity="0.2" />
    <circle cx="200" cy="100" r="3" fill="#ABB2BF" fill-opacity="0.2" />
    <circle cx="200" cy="200" r="3" fill="#ABB2BF" fill-opacity="0.2" />
    <circle cx="150" cy="250" r="3" fill="#ABB2BF" fill-opacity="0.2" />
    <circle cx="50" cy="250" r="3" fill="#ABB2BF" fill-opacity="0.2" />
    <path d="M100 0 L100 50" />
    <path d="M200 200 L250 200 L300 150 L350 150" />
    <path d="M0 150 L50 150" />
    <path d="M350 100 L400 100" />
    <path d="M150 250 L150 350 L100 400" />
    <circle cx="350" cy="150" r="3" fill="#ABB2BF" fill-opacity="0.2" />
    <circle cx="250" cy="200" r="3" fill="#ABB2BF" fill-opacity="0.2" />
  </g>
</svg>
